<?xml version='1.0' encoding='ASCII' standalone='yes'?>
<svg xmlns:xlink="http://www.w3.org/1999/xlink" xmlns="http://www.w3.org/2000/svg" version="1.1" width="360.0px" viewBox="0 0 360.0px 360.0px" height="360.0px">
  <g>
    <g>
      <g transform="translate(18, 7.2) scale(1) translate(0, 0) scale(0.93) ">
        <defs>
          <g class="white pawn" id="white-pawn">
            <path d="M22 9c-2.21 0-4 1.79-4 4 0 .89.29 1.71.78 2.38-1.95 1.12-3.28 3.21-3.28 5.62 0 2.03.94 3.84 2.41 5.03-3 1.06-7.41 5.55-7.41 13.47h23c0-7.92-4.41-12.41-7.41-13.47 1.47-1.19 2.41-3 2.41-5.03 0-2.41-1.33-4.5-3.28-5.62.49-.67.78-1.49.78-2.38 0-2.21-1.79-4-4-4z" fill="#fff" stroke="#000" stroke-linecap="round" stroke-width="1.5"/>
          </g>
          <g class="white knight" fill="none" fill-rule="evenodd" id="white-knight" stroke="#000" stroke-linecap="round" stroke-linejoin="round" stroke-width="1.5">
            <path d="M 22,10 C 32.5,11 38.5,18 38,39 L 15,39 C 15,30 25,32.5 23,18" style="fill:#ffffff; stroke:#000000;"/>
            <path d="M 24,18 C 24.38,20.91 18.45,25.37 16,27 C 13,29 13.18,31.34 11,31 C 9.958,30.06 12.41,27.96 11,28 C 10,28 11.19,29.23 10,30 C 9,30 5.997,31 6,26 C 6,24 12,14 12,14 C 12,14 13.89,12.1 14,10.5 C 13.27,9.506 13.5,8.5 13.5,7.5 C 14.5,6.5 16.5,10 16.5,10 L 18.5,10 C 18.5,10 19.28,8.008 21,7 C 22,7 22,10 22,10" style="fill:#ffffff; stroke:#000000;"/>
            <path d="M 9.5 25.5 A 0.5 0.5 0 1 1 8.5,25.5 A 0.5 0.5 0 1 1 9.5 25.5 z" style="fill:#000000; stroke:#000000;"/>
            <path d="M 15 15.5 A 0.5 1.5 0 1 1 14,15.5 A 0.5 1.5 0 1 1 15 15.5 z" style="fill:#000000; stroke:#000000;" transform="matrix(0.866,0.5,-0.5,0.866,9.693,-5.173)"/>
          </g>
          <g class="white bishop" fill="none" fill-rule="evenodd" id="white-bishop" stroke="#000" stroke-linecap="round" stroke-linejoin="round" stroke-width="1.5">
            <g fill="#fff" stroke-linecap="butt">
              <path d="M9 36c3.39-.97 10.11.43 13.5-2 3.39 2.43 10.11 1.03 13.5 2 0 0 1.65.54 3 2-.68.97-1.65.99-3 .5-3.39-.97-10.11.46-13.5-1-3.39 1.46-10.11.03-13.5 1-1.354.49-2.323.47-3-.5 1.354-1.94 3-2 3-2zM15 32c2.5 2.5 12.5 2.5 15 0 .5-1.5 0-2 0-2 0-2.5-2.5-4-2.5-4 5.5-1.5 6-11.5-5-15.5-11 4-10.5 14-5 15.5 0 0-2.5 1.5-2.5 4 0 0-.5.5 0 2zM25 8a2.5 2.5 0 1 1-5 0 2.5 2.5 0 1 1 5 0z"/>
            </g>
            <path d="M17.5 26h10M15 30h15m-7.5-14.5v5M20 18h5" stroke-linejoin="miter"/>
          </g>
          <g class="white rook" fill="#fff" fill-rule="evenodd" id="white-rook" stroke="#000" stroke-linecap="round" stroke-linejoin="round" stroke-width="1.5">
            <path d="M9 39h27v-3H9v3zM12 36v-4h21v4H12zM11 14V9h4v2h5V9h5v2h5V9h4v5" stroke-linecap="butt"/>
            <path d="M34 14l-3 3H14l-3-3"/>
            <path d="M31 17v12.5H14V17" stroke-linecap="butt" stroke-linejoin="miter"/>
            <path d="M31 29.5l1.5 2.5h-20l1.5-2.5"/>
            <path d="M11 14h23" fill="none" stroke-linejoin="miter"/>
          </g>
          <g class="white king" fill="none" fill-rule="evenodd" id="white-king" stroke="#000" stroke-linecap="round" stroke-linejoin="round" stroke-width="1.5">
            <path d="M22.5 11.63V6M20 8h5" stroke-linejoin="miter"/>
            <path d="M22.5 25s4.5-7.5 3-10.5c0 0-1-2.5-3-2.5s-3 2.5-3 2.5c-1.5 3 3 10.5 3 10.5" fill="#fff" stroke-linecap="butt" stroke-linejoin="miter"/>
            <path d="M11.5 37c5.5 3.5 15.5 3.5 21 0v-7s9-4.5 6-10.5c-4-6.5-13.5-3.5-16 4V27v-3.5c-3.5-7.5-13-10.5-16-4-3 6 5 10 5 10V37z" fill="#fff"/>
            <path d="M11.5 30c5.5-3 15.5-3 21 0m-21 3.5c5.5-3 15.5-3 21 0m-21 3.5c5.5-3 15.5-3 21 0"/>
          </g>
          <g class="black pawn" id="black-pawn">
            <path d="M22 9c-2.21 0-4 1.79-4 4 0 .89.29 1.71.78 2.38-1.95 1.12-3.28 3.21-3.28 5.62 0 2.03.94 3.84 2.41 5.03-3 1.06-7.41 5.55-7.41 13.47h23c0-7.92-4.41-12.41-7.41-13.47 1.47-1.19 2.41-3 2.41-5.03 0-2.41-1.33-4.5-3.28-5.62.49-.67.78-1.49.78-2.38 0-2.21-1.79-4-4-4z" stroke="#000" stroke-linecap="round" stroke-width="1.5"/>
          </g>
          <g class="black knight" fill="none" fill-rule="evenodd" id="black-knight" stroke="#000" stroke-linecap="round" stroke-linejoin="round" stroke-width="1.5">
            <path d="M 22,10 C 32.5,11 38.5,18 38,39 L 15,39 C 15,30 25,32.5 23,18" style="fill:#000000; stroke:#000000;"/>
            <path d="M 24,18 C 24.38,20.91 18.45,25.37 16,27 C 13,29 13.18,31.34 11,31 C 9.958,30.06 12.41,27.96 11,28 C 10,28 11.19,29.23 10,30 C 9,30 5.997,31 6,26 C 6,24 12,14 12,14 C 12,14 13.89,12.1 14,10.5 C 13.27,9.506 13.5,8.5 13.5,7.5 C 14.5,6.5 16.5,10 16.5,10 L 18.5,10 C 18.5,10 19.28,8.008 21,7 C 22,7 22,10 22,10" style="fill:#000000; stroke:#000000;"/>
            <path d="M 9.5 25.5 A 0.5 0.5 0 1 1 8.5,25.5 A 0.5 0.5 0 1 1 9.5 25.5 z" style="fill:#ececec; stroke:#ececec;"/>
            <path d="M 15 15.5 A 0.5 1.5 0 1 1 14,15.5 A 0.5 1.5 0 1 1 15 15.5 z" style="fill:#ececec; stroke:#ececec;" transform="matrix(0.866,0.5,-0.5,0.866,9.693,-5.173)"/>
            <path d="M 24.55,10.4 L 24.1,11.85 L 24.6,12 C 27.75,13 30.25,14.49 32.5,18.75 C 34.75,23.01 35.75,29.06 35.25,39 L 35.2,39.5 L 37.45,39.5 L 37.5,39 C 38,28.94 36.62,22.15 34.25,17.66 C 31.88,13.17 28.46,11.02 25.06,10.5 L 24.55,10.4 z " style="fill:#ececec; stroke:none;"/>
          </g>
          <g class="black bishop" fill="none" fill-rule="evenodd" id="black-bishop" stroke="#000" stroke-linecap="round" stroke-linejoin="round" stroke-width="1.5">
            <path d="M9 36c3.39-.97 10.11.43 13.5-2 3.39 2.43 10.11 1.03 13.5 2 0 0 1.65.54 3 2-.68.97-1.65.99-3 .5-3.39-.97-10.11.46-13.5-1-3.39 1.46-10.11.03-13.5 1-1.354.49-2.323.47-3-.5 1.354-1.94 3-2 3-2zm6-4c2.5 2.5 12.5 2.5 15 0 .5-1.5 0-2 0-2 0-2.5-2.5-4-2.5-4 5.5-1.5 6-11.5-5-15.5-11 4-10.5 14-5 15.5 0 0-2.5 1.5-2.5 4 0 0-.5.5 0 2zM25 8a2.5 2.5 0 1 1-5 0 2.5 2.5 0 1 1 5 0z" fill="#000" stroke-linecap="butt"/>
            <path d="M17.5 26h10M15 30h15m-7.5-14.5v5M20 18h5" stroke="#fff" stroke-linejoin="miter"/>
          </g>
          <g class="black rook" fill="#000" fill-rule="evenodd" id="black-rook" stroke="#000" stroke-linecap="round" stroke-linejoin="round" stroke-width="1.5">
            <path d="M9 39h27v-3H9v3zM12.5 32l1.5-2.5h17l1.5 2.5h-20zM12 36v-4h21v4H12z" stroke-linecap="butt"/>
            <path d="M14 29.5v-13h17v13H14z" stroke-linecap="butt" stroke-linejoin="miter"/>
            <path d="M14 16.5L11 14h23l-3 2.5H14zM11 14V9h4v2h5V9h5v2h5V9h4v5H11z" stroke-linecap="butt"/>
            <path d="M12 35.5h21M13 31.5h19M14 29.5h17M14 16.5h17M11 14h23" fill="none" stroke="#fff" stroke-linejoin="miter" stroke-width="1"/>
          </g>
          <g class="black king" fill="none" fill-rule="evenodd" id="black-king" stroke="#000" stroke-linecap="round" stroke-linejoin="round" stroke-width="1.5">
            <path d="M22.5 11.63V6" stroke-linejoin="miter"/>
            <path d="M22.5 25s4.5-7.5 3-10.5c0 0-1-2.5-3-2.5s-3 2.5-3 2.5c-1.5 3 3 10.5 3 10.5" fill="#000" stroke-linecap="butt" stroke-linejoin="miter"/>
            <path d="M11.5 37c5.5 3.5 15.5 3.5 21 0v-7s9-4.5 6-10.5c-4-6.5-13.5-3.5-16 4V27v-3.5c-3.5-7.5-13-10.5-16-4-3 6 5 10 5 10V37z" fill="#000"/>
            <path d="M20 8h5" stroke-linejoin="miter"/>
            <path d="M32 29.5s8.5-4 6.03-9.65C34.15 14 25 18 22.5 24.5l.01 2.1-.01-2.1C20 18 9.906 14 6.997 19.85c-2.497 5.65 4.853 9 4.853 9M11.5 30c5.5-3 15.5-3 21 0m-21 3.5c5.5-3 15.5-3 21 0m-21 3.5c5.5-3 15.5-3 21 0" stroke="#fff"/>
          </g>
        </defs>
        <rect class="square dark a1" fill="#d18b47" height="45" stroke="none" width="45" x="0" y="315"/>
        <rect class="square light b1" fill="#ffce9e" height="45" stroke="none" width="45" x="45" y="315"/>
        <rect class="square dark c1" fill="#d18b47" height="45" stroke="none" width="45" x="90" y="315"/>
        <rect class="square light d1" fill="#ffce9e" height="45" stroke="none" width="45" x="135" y="315"/>
        <rect class="square dark e1" fill="#d18b47" height="45" stroke="none" width="45" x="180" y="315"/>
        <rect class="square light f1" fill="#ffce9e" height="45" stroke="none" width="45" x="225" y="315"/>
        <rect class="square dark g1" fill="#d18b47" height="45" stroke="none" width="45" x="270" y="315"/>
        <use transform="translate(270, 315)" xlink:href="#white-king"/>
        <rect class="square light h1" fill="#ffce9e" height="45" stroke="none" width="45" x="315" y="315"/>
        <rect class="square light a2" fill="#ffce9e" height="45" stroke="none" width="45" x="0" y="270"/>
        <use transform="translate(0, 270)" xlink:href="#white-pawn"/>
        <rect class="square dark b2" fill="#d18b47" height="45" stroke="none" width="45" x="45" y="270"/>
        <rect class="square light c2" fill="#ffce9e" height="45" stroke="none" width="45" x="90" y="270"/>
        <rect class="square dark d2" fill="#d18b47" height="45" stroke="none" width="45" x="135" y="270"/>
        <rect class="square light e2" fill="#ffce9e" height="45" stroke="none" width="45" x="180" y="270"/>
        <rect class="square dark f2" fill="#d18b47" height="45" stroke="none" width="45" x="225" y="270"/>
        <use transform="translate(225, 270)" xlink:href="#white-pawn"/>
        <rect class="square light g2" fill="#ffce9e" height="45" stroke="none" width="45" x="270" y="270"/>
        <use transform="translate(270, 270)" xlink:href="#white-pawn"/>
        <rect class="square dark h2" fill="#d18b47" height="45" stroke="none" width="45" x="315" y="270"/>
        <rect class="square dark a3" fill="#d18b47" height="45" stroke="none" width="45" x="0" y="225"/>
        <rect class="square light b3" fill="#ffce9e" height="45" stroke="none" width="45" x="45" y="225"/>
        <rect class="square dark c3" fill="#d18b47" height="45" stroke="none" width="45" x="90" y="225"/>
        <rect class="square light d3" fill="#ffce9e" height="45" stroke="none" width="45" x="135" y="225"/>
        <rect class="square dark e3" fill="#d18b47" height="45" stroke="none" width="45" x="180" y="225"/>
        <rect class="square light f3" fill="#ffce9e" height="45" stroke="none" width="45" x="225" y="225"/>
        <rect class="square dark g3" fill="#d18b47" height="45" stroke="none" width="45" x="270" y="225"/>
        <rect class="square light h3" fill="#ffce9e" height="45" stroke="none" width="45" x="315" y="225"/>
        <rect class="square light a4" fill="#ffce9e" height="45" stroke="none" width="45" x="0" y="180"/>
        <use transform="translate(0, 180)" xlink:href="#black-rook"/>
        <rect class="square dark b4" fill="#d18b47" height="45" stroke="none" width="45" x="45" y="180"/>
        <rect class="square light c4" fill="#ffce9e" height="45" stroke="none" width="45" x="90" y="180"/>
        <use transform="translate(90, 180)" xlink:href="#white-bishop"/>
        <rect class="square dark d4" fill="#d18b47" height="45" stroke="none" width="45" x="135" y="180"/>
        <rect class="square light e4" fill="#ffce9e" height="45" stroke="none" width="45" x="180" y="180"/>
        <rect class="square dark f4" fill="#d18b47" height="45" stroke="none" width="45" x="225" y="180"/>
        <rect class="square light g4" fill="#ffce9e" height="45" stroke="none" width="45" x="270" y="180"/>
        <rect class="square dark h4" fill="#d18b47" height="45" stroke="none" width="45" x="315" y="180"/>
        <rect class="square dark a5" fill="#d18b47" height="45" stroke="none" width="45" x="0" y="135"/>
        <rect class="square light b5" fill="#ffce9e" height="45" stroke="none" width="45" x="45" y="135"/>
        <rect class="square dark c5" fill="#d18b47" height="45" stroke="none" width="45" x="90" y="135"/>
        <rect class="square light d5" fill="#ffce9e" height="45" stroke="none" width="45" x="135" y="135"/>
        <use transform="translate(135, 135)" xlink:href="#white-knight"/>
        <rect class="square dark e5" fill="#d18b47" height="45" stroke="none" width="45" x="180" y="135"/>
        <rect class="square light f5" fill="#ffce9e" height="45" stroke="none" width="45" x="225" y="135"/>
        <rect class="square dark g5" fill="#d18b47" height="45" stroke="none" width="45" x="270" y="135"/>
        <rect class="square light h5" fill="#ffce9e" height="45" stroke="none" width="45" x="315" y="135"/>
        <use transform="translate(315, 135)" xlink:href="#black-knight"/>
        <rect class="square light a6" fill="#ffce9e" height="45" stroke="none" width="45" x="0" y="90"/>
        <use transform="translate(0, 90)" xlink:href="#white-pawn"/>
        <rect class="square dark b6" fill="#d18b47" height="45" stroke="none" width="45" x="45" y="90"/>
        <rect class="square light c6" fill="#ffce9e" height="45" stroke="none" width="45" x="90" y="90"/>
        <rect class="square dark d6" fill="#d18b47" height="45" stroke="none" width="45" x="135" y="90"/>
        <rect class="square light e6" fill="#ffce9e" height="45" stroke="none" width="45" x="180" y="90"/>
        <rect class="square dark f6" fill="#d18b47" height="45" stroke="none" width="45" x="225" y="90"/>
        <rect class="square light g6" fill="#ffce9e" height="45" stroke="none" width="45" x="270" y="90"/>
        <use transform="translate(270, 90)" xlink:href="#black-pawn"/>
        <rect class="square dark h6" fill="#d18b47" height="45" stroke="none" width="45" x="315" y="90"/>
        <rect class="square dark a7" fill="#d18b47" height="45" stroke="none" width="45" x="0" y="45"/>
        <rect class="square light b7" fill="#ffce9e" height="45" stroke="none" width="45" x="45" y="45"/>
        <rect class="square dark c7" fill="#d18b47" height="45" stroke="none" width="45" x="90" y="45"/>
        <use transform="translate(90, 45)" xlink:href="#white-rook"/>
        <rect class="square light d7" fill="#ffce9e" height="45" stroke="none" width="45" x="135" y="45"/>
        <rect class="square dark e7" fill="#d18b47" height="45" stroke="none" width="45" x="180" y="45"/>
        <use transform="translate(180, 45)" xlink:href="#black-pawn"/>
        <rect class="square light f7" fill="#ffce9e" height="45" stroke="none" width="45" x="225" y="45"/>
        <use transform="translate(225, 45)" xlink:href="#black-pawn"/>
        <rect class="square dark g7" fill="#d18b47" height="45" stroke="none" width="45" x="270" y="45"/>
        <rect class="square light h7" fill="#ffce9e" height="45" stroke="none" width="45" x="315" y="45"/>
        <use transform="translate(315, 45)" xlink:href="#black-pawn"/>
        <rect class="square light a8" fill="#ffce9e" height="45" stroke="none" width="45" x="0" y="0"/>
        <rect class="square dark b8" fill="#d18b47" height="45" stroke="none" width="45" x="45" y="0"/>
        <rect class="square light c8" fill="#ffce9e" height="45" stroke="none" width="45" x="90" y="0"/>
        <rect class="square dark d8" fill="#d18b47" height="45" stroke="none" width="45" x="135" y="0"/>
        <rect class="square light e8" fill="#ffce9e" height="45" stroke="none" width="45" x="180" y="0"/>
        <use transform="translate(180, 0)" xlink:href="#black-bishop"/>
        <rect class="square dark f8" fill="#d18b47" height="45" stroke="none" width="45" x="225" y="0"/>
        <use transform="translate(225, 0)" xlink:href="#black-king"/>
        <rect class="square light g8" fill="#ffce9e" height="45" stroke="none" width="45" x="270" y="0"/>
        <rect class="square dark h8" fill="#d18b47" height="45" stroke="none" width="45" x="315" y="0"/>
      </g>
    </g>
    <g>
      <g><defs>
  <style type="text/css">
*{stroke-linecap:butt;stroke-linejoin:round;}
  </style>
 </defs>
 <g id="figure_1">
  <g id="patch_1">
   <path d="M 0 360  L 360 360  L 360 0  L 0 0  z " style="fill:none;"/>
  </g>
  <g id="axes_1">
   <g id="patch_2">
    <path d="M 18 342  L 352.8 342  L 352.8 7.2  L 18 7.2  z " style="fill:none;"/>
   </g>
   <g id="matplotlib.axis_1">
    <g id="xtick_1">
     <g id="line2d_1">
      <defs>
       <path d="M 0 0  L 0 3.5  " id="mebeffa6a4d" style="stroke:#000000;stroke-width:0.8;"/>
      </defs>
      <g>
       <use style="stroke:#000000;stroke-width:0.8;" x="18" xlink:href="#mebeffa6a4d" y="342"/>
      </g>
     </g>
     <g id="text_1">
      <!-- 0 -->
      <defs>
       <path d="M 31.78125 66.40625  Q 24.171875 66.40625 20.328125 58.90625  Q 16.5 51.421875 16.5 36.375  Q 16.5 21.390625 20.328125 13.890625  Q 24.171875 6.390625 31.78125 6.390625  Q 39.453125 6.390625 43.28125 13.890625  Q 47.125 21.390625 47.125 36.375  Q 47.125 51.421875 43.28125 58.90625  Q 39.453125 66.40625 31.78125 66.40625  z M 31.78125 74.21875  Q 44.046875 74.21875 50.515625 64.515625  Q 56.984375 54.828125 56.984375 36.375  Q 56.984375 17.96875 50.515625 8.265625  Q 44.046875 -1.421875 31.78125 -1.421875  Q 19.53125 -1.421875 13.0625 8.265625  Q 6.59375 17.96875 6.59375 36.375  Q 6.59375 54.828125 13.0625 64.515625  Q 19.53125 74.21875 31.78125 74.21875  z " id="DejaVuSans-48"/>
      </defs>
      <g transform="translate(14.81875 356.598437)scale(0.1 -0.1)">
       <use xlink:href="#DejaVuSans-48"/>
      </g>
     </g>
    </g>
    <g id="xtick_2">
     <g id="line2d_2">
      <g>
       <use style="stroke:#000000;stroke-width:0.8;" x="88.484211" xlink:href="#mebeffa6a4d" y="342"/>
      </g>
     </g>
     <g id="text_2">
      <!-- 10 -->
      <defs>
       <path d="M 12.40625 8.296875  L 28.515625 8.296875  L 28.515625 63.921875  L 10.984375 60.40625  L 10.984375 69.390625  L 28.421875 72.90625  L 38.28125 72.90625  L 38.28125 8.296875  L 54.390625 8.296875  L 54.390625 0  L 12.40625 0  z " id="DejaVuSans-49"/>
      </defs>
      <g transform="translate(82.121711 356.598437)scale(0.1 -0.1)">
       <use xlink:href="#DejaVuSans-49"/>
       <use x="63.623047" xlink:href="#DejaVuSans-48"/>
      </g>
     </g>
    </g>
    <g id="xtick_3">
     <g id="line2d_3">
      <g>
       <use style="stroke:#000000;stroke-width:0.8;" x="158.968421" xlink:href="#mebeffa6a4d" y="342"/>
      </g>
     </g>
     <g id="text_3">
      <!-- 20 -->
      <defs>
       <path d="M 19.1875 8.296875  L 53.609375 8.296875  L 53.609375 0  L 7.328125 0  L 7.328125 8.296875  Q 12.9375 14.109375 22.625 23.890625  Q 32.328125 33.6875 34.8125 36.53125  Q 39.546875 41.84375 41.421875 45.53125  Q 43.3125 49.21875 43.3125 52.78125  Q 43.3125 58.59375 39.234375 62.25  Q 35.15625 65.921875 28.609375 65.921875  Q 23.96875 65.921875 18.8125 64.3125  Q 13.671875 62.703125 7.8125 59.421875  L 7.8125 69.390625  Q 13.765625 71.78125 18.9375 73  Q 24.125 74.21875 28.421875 74.21875  Q 39.75 74.21875 46.484375 68.546875  Q 53.21875 62.890625 53.21875 53.421875  Q 53.21875 48.921875 51.53125 44.890625  Q 49.859375 40.875 45.40625 35.40625  Q 44.1875 33.984375 37.640625 27.21875  Q 31.109375 20.453125 19.1875 8.296875  z " id="DejaVuSans-50"/>
      </defs>
      <g transform="translate(152.605921 356.598437)scale(0.1 -0.1)">
       <use xlink:href="#DejaVuSans-50"/>
       <use x="63.623047" xlink:href="#DejaVuSans-48"/>
      </g>
     </g>
    </g>
    <g id="xtick_4">
     <g id="line2d_4">
      <g>
       <use style="stroke:#000000;stroke-width:0.8;" x="229.452632" xlink:href="#mebeffa6a4d" y="342"/>
      </g>
     </g>
     <g id="text_4">
      <!-- 30 -->
      <defs>
       <path d="M 40.578125 39.3125  Q 47.65625 37.796875 51.625 33  Q 55.609375 28.21875 55.609375 21.1875  Q 55.609375 10.40625 48.1875 4.484375  Q 40.765625 -1.421875 27.09375 -1.421875  Q 22.515625 -1.421875 17.65625 -0.515625  Q 12.796875 0.390625 7.625 2.203125  L 7.625 11.71875  Q 11.71875 9.328125 16.59375 8.109375  Q 21.484375 6.890625 26.8125 6.890625  Q 36.078125 6.890625 40.9375 10.546875  Q 45.796875 14.203125 45.796875 21.1875  Q 45.796875 27.640625 41.28125 31.265625  Q 36.765625 34.90625 28.71875 34.90625  L 20.21875 34.90625  L 20.21875 43.015625  L 29.109375 43.015625  Q 36.375 43.015625 40.234375 45.921875  Q 44.09375 48.828125 44.09375 54.296875  Q 44.09375 59.90625 40.109375 62.90625  Q 36.140625 65.921875 28.71875 65.921875  Q 24.65625 65.921875 20.015625 65.03125  Q 15.375 64.15625 9.8125 62.3125  L 9.8125 71.09375  Q 15.4375 72.65625 20.34375 73.4375  Q 25.25 74.21875 29.59375 74.21875  Q 40.828125 74.21875 47.359375 69.109375  Q 53.90625 64.015625 53.90625 55.328125  Q 53.90625 49.265625 50.4375 45.09375  Q 46.96875 40.921875 40.578125 39.3125  z " id="DejaVuSans-51"/>
      </defs>
      <g transform="translate(223.090132 356.598437)scale(0.1 -0.1)">
       <use xlink:href="#DejaVuSans-51"/>
       <use x="63.623047" xlink:href="#DejaVuSans-48"/>
      </g>
     </g>
    </g>
    <g id="xtick_5">
     <g id="line2d_5">
      <g>
       <use style="stroke:#000000;stroke-width:0.8;" x="299.936842" xlink:href="#mebeffa6a4d" y="342"/>
      </g>
     </g>
     <g id="text_5">
      <!-- 40 -->
      <defs>
       <path d="M 37.796875 64.3125  L 12.890625 25.390625  L 37.796875 25.390625  z M 35.203125 72.90625  L 47.609375 72.90625  L 47.609375 25.390625  L 58.015625 25.390625  L 58.015625 17.1875  L 47.609375 17.1875  L 47.609375 0  L 37.796875 0  L 37.796875 17.1875  L 4.890625 17.1875  L 4.890625 26.703125  z " id="DejaVuSans-52"/>
      </defs>
      <g transform="translate(293.574342 356.598437)scale(0.1 -0.1)">
       <use xlink:href="#DejaVuSans-52"/>
       <use x="63.623047" xlink:href="#DejaVuSans-48"/>
      </g>
     </g>
    </g>
   </g>
   <g id="matplotlib.axis_2">
    <g id="ytick_1">
     <g id="line2d_6">
      <defs>
       <path d="M 0 0  L -3.5 0  " id="m74390c8540" style="stroke:#000000;stroke-width:0.8;"/>
      </defs>
      <g>
       <use style="stroke:#000000;stroke-width:0.8;" x="18" xlink:href="#m74390c8540" y="342"/>
      </g>
     </g>
     <g id="text_6">
      <!-- &#8722;8 -->
      <defs>
       <path d="M 10.59375 35.5  L 73.1875 35.5  L 73.1875 27.203125  L 10.59375 27.203125  z " id="DejaVuSans-8722"/>
       <path d="M 31.78125 34.625  Q 24.75 34.625 20.71875 30.859375  Q 16.703125 27.09375 16.703125 20.515625  Q 16.703125 13.921875 20.71875 10.15625  Q 24.75 6.390625 31.78125 6.390625  Q 38.8125 6.390625 42.859375 10.171875  Q 46.921875 13.96875 46.921875 20.515625  Q 46.921875 27.09375 42.890625 30.859375  Q 38.875 34.625 31.78125 34.625  z M 21.921875 38.8125  Q 15.578125 40.375 12.03125 44.71875  Q 8.5 49.078125 8.5 55.328125  Q 8.5 64.0625 14.71875 69.140625  Q 20.953125 74.21875 31.78125 74.21875  Q 42.671875 74.21875 48.875 69.140625  Q 55.078125 64.0625 55.078125 55.328125  Q 55.078125 49.078125 51.53125 44.71875  Q 48 40.375 41.703125 38.8125  Q 48.828125 37.15625 52.796875 32.3125  Q 56.78125 27.484375 56.78125 20.515625  Q 56.78125 9.90625 50.3125 4.234375  Q 43.84375 -1.421875 31.78125 -1.421875  Q 19.734375 -1.421875 13.25 4.234375  Q 6.78125 9.90625 6.78125 20.515625  Q 6.78125 27.484375 10.78125 32.3125  Q 14.796875 37.15625 21.921875 38.8125  z M 18.3125 54.390625  Q 18.3125 48.734375 21.84375 45.5625  Q 25.390625 42.390625 31.78125 42.390625  Q 38.140625 42.390625 41.71875 45.5625  Q 45.3125 48.734375 45.3125 54.390625  Q 45.3125 60.0625 41.71875 63.234375  Q 38.140625 66.40625 31.78125 66.40625  Q 25.390625 66.40625 21.84375 63.234375  Q 18.3125 60.0625 18.3125 54.390625  z " id="DejaVuSans-56"/>
      </defs>
      <g transform="translate(-3.742188 345.799219)scale(0.1 -0.1)">
       <use xlink:href="#DejaVuSans-8722"/>
       <use x="83.789062" xlink:href="#DejaVuSans-56"/>
      </g>
     </g>
    </g>
    <g id="ytick_2">
     <g id="line2d_7">
      <g>
       <use style="stroke:#000000;stroke-width:0.8;" x="18" xlink:href="#m74390c8540" y="300.15"/>
      </g>
     </g>
     <g id="text_7">
      <!-- &#8722;6 -->
      <defs>
       <path d="M 33.015625 40.375  Q 26.375 40.375 22.484375 35.828125  Q 18.609375 31.296875 18.609375 23.390625  Q 18.609375 15.53125 22.484375 10.953125  Q 26.375 6.390625 33.015625 6.390625  Q 39.65625 6.390625 43.53125 10.953125  Q 47.40625 15.53125 47.40625 23.390625  Q 47.40625 31.296875 43.53125 35.828125  Q 39.65625 40.375 33.015625 40.375  z M 52.59375 71.296875  L 52.59375 62.3125  Q 48.875 64.0625 45.09375 64.984375  Q 41.3125 65.921875 37.59375 65.921875  Q 27.828125 65.921875 22.671875 59.328125  Q 17.53125 52.734375 16.796875 39.40625  Q 19.671875 43.65625 24.015625 45.921875  Q 28.375 48.1875 33.59375 48.1875  Q 44.578125 48.1875 50.953125 41.515625  Q 57.328125 34.859375 57.328125 23.390625  Q 57.328125 12.15625 50.6875 5.359375  Q 44.046875 -1.421875 33.015625 -1.421875  Q 20.359375 -1.421875 13.671875 8.265625  Q 6.984375 17.96875 6.984375 36.375  Q 6.984375 53.65625 15.1875 63.9375  Q 23.390625 74.21875 37.203125 74.21875  Q 40.921875 74.21875 44.703125 73.484375  Q 48.484375 72.75 52.59375 71.296875  z " id="DejaVuSans-54"/>
      </defs>
      <g transform="translate(-3.742188 303.949219)scale(0.1 -0.1)">
       <use xlink:href="#DejaVuSans-8722"/>
       <use x="83.789062" xlink:href="#DejaVuSans-54"/>
      </g>
     </g>
    </g>
    <g id="ytick_3">
     <g id="line2d_8">
      <g>
       <use style="stroke:#000000;stroke-width:0.8;" x="18" xlink:href="#m74390c8540" y="258.3"/>
      </g>
     </g>
     <g id="text_8">
      <!-- &#8722;4 -->
      <g transform="translate(-3.742188 262.099219)scale(0.1 -0.1)">
       <use xlink:href="#DejaVuSans-8722"/>
       <use x="83.789062" xlink:href="#DejaVuSans-52"/>
      </g>
     </g>
    </g>
    <g id="ytick_4">
     <g id="line2d_9">
      <g>
       <use style="stroke:#000000;stroke-width:0.8;" x="18" xlink:href="#m74390c8540" y="216.45"/>
      </g>
     </g>
     <g id="text_9">
      <!-- &#8722;2 -->
      <g transform="translate(-3.742188 220.249219)scale(0.1 -0.1)">
       <use xlink:href="#DejaVuSans-8722"/>
       <use x="83.789062" xlink:href="#DejaVuSans-50"/>
      </g>
     </g>
    </g>
    <g id="ytick_5">
     <g id="line2d_10">
      <g>
       <use style="stroke:#000000;stroke-width:0.8;" x="18" xlink:href="#m74390c8540" y="174.6"/>
      </g>
     </g>
     <g id="text_10">
      <!-- 0 -->
      <g transform="translate(4.6375 178.399219)scale(0.1 -0.1)">
       <use xlink:href="#DejaVuSans-48"/>
      </g>
     </g>
    </g>
    <g id="ytick_6">
     <g id="line2d_11">
      <g>
       <use style="stroke:#000000;stroke-width:0.8;" x="18" xlink:href="#m74390c8540" y="132.75"/>
      </g>
     </g>
     <g id="text_11">
      <!-- 2 -->
      <g transform="translate(4.6375 136.549219)scale(0.1 -0.1)">
       <use xlink:href="#DejaVuSans-50"/>
      </g>
     </g>
    </g>
    <g id="ytick_7">
     <g id="line2d_12">
      <g>
       <use style="stroke:#000000;stroke-width:0.8;" x="18" xlink:href="#m74390c8540" y="90.9"/>
      </g>
     </g>
     <g id="text_12">
      <!-- 4 -->
      <g transform="translate(4.6375 94.699219)scale(0.1 -0.1)">
       <use xlink:href="#DejaVuSans-52"/>
      </g>
     </g>
    </g>
    <g id="ytick_8">
     <g id="line2d_13">
      <g>
       <use style="stroke:#000000;stroke-width:0.8;" x="18" xlink:href="#m74390c8540" y="49.05"/>
      </g>
     </g>
     <g id="text_13">
      <!-- 6 -->
      <g transform="translate(4.6375 52.849219)scale(0.1 -0.1)">
       <use xlink:href="#DejaVuSans-54"/>
      </g>
     </g>
    </g>
    <g id="ytick_9">
     <g id="line2d_14">
      <g>
       <use style="stroke:#000000;stroke-width:0.8;" x="18" xlink:href="#m74390c8540" y="7.2"/>
      </g>
     </g>
     <g id="text_14">
      <!-- 8 -->
      <g transform="translate(4.6375 10.999219)scale(0.1 -0.1)">
       <use xlink:href="#DejaVuSans-56"/>
      </g>
     </g>
    </g>
   </g>
   <g id="line2d_15">
    <path clip-path="url(#pf3e8a99a7a)" d="M 18 166.6485  L 21.524211 170.8335  L 25.048421 171.252  L 28.572632 168.741  L 32.096842 163.09125  L 35.621053 169.36875  L 39.145263 169.1595  L 42.669474 170.415  L 46.193684 166.85775  L 49.717895 169.578  L 53.242105 168.741  L 56.766316 168.95025  L 60.290526 170.415  L 63.814737 168.95025  L 67.338947 169.36875  L 70.863158 172.089  L 74.387368 172.926  L 77.911579 174.1815  L 81.435789 170.8335  L 84.96 172.089  L 88.484211 169.578  L 92.008421 172.5075  L 95.532632 171.252  L 99.056842 169.1595  L 102.581053 168.95025  L 106.105263 171.6705  L 109.629474 172.089  L 113.153684 173.3445  L 116.677895 173.13525  L 120.202105 174.1815  L 123.726316 169.1595  L 127.250526 171.87975  L 130.774737 168.53175  L 134.298947 169.9965  L 137.823158 167.69475  L 141.347368 174.6  L 144.871579 168.53175  L 148.395789 172.089  L 151.92 172.29825  L 155.444211 177.111  L 158.968421 173.97225  L 162.492632 173.13525  L 166.016842 173.13525  L 169.541053 174.6  L 173.065263 161.83575  L 176.589474 166.02075  L 180.113684 151.164  L 183.637895 161.208  L 187.162105 156.39525  L 190.686316 155.13975  L 194.210526 153.675  L 197.734737 164.1375  L 201.258947 158.90625  L 204.783158 164.1375  L 208.307368 166.02075  L 211.831579 168.741  L 215.355789 154.72125  L 218.88 163.3005  L 222.404211 163.719  L 225.928421 173.3445  L 229.452632 160.58025  L 232.976842 162.67275  L 236.501053 162.045  L 240.025263 162.67275  L 243.549474 163.3005  L 247.073684 162.4635  L 250.597895 158.697  L 254.122105 158.90625  L 257.646316 156.6045  L 261.170526 167.067  L 264.694737 166.85775  L 268.218947 166.6485  L 271.743158 167.69475  L 275.267368 166.85775  L 278.791579 154.72125  L 282.315789 159.32475  L 285.84 159.534  L 289.364211 156.81375  L 292.888421 150.11775  L 296.412632 149.9085  L 299.936842 150.327  L 303.461053 150.327  L 306.985263 151.37325  L 310.509474 152.62875  L 314.033684 145.51425  L 317.557895 147.18825  L 321.082105 145.09575  L 324.606316 143.631  L 328.130526 140.7015  L 331.654737 141.5385  L 335.178947 133.587  L 338.703158 132.3315  L 342.227368 133.1685  L 345.751579 130.86675  L 349.275789 98.8515  L 352.8 94.45725  " style="fill:none;stroke:#000000;stroke-linecap:square;stroke-width:1.5;"/>
   </g>
   <g id="patch_3">
    <path d="M 18 342  L 18 7.2  " style="fill:none;stroke:#000000;stroke-linecap:square;stroke-linejoin:miter;stroke-width:0.8;"/>
   </g>
   <g id="patch_4">
    <path d="M 352.8 342  L 352.8 7.2  " style="fill:none;stroke:#000000;stroke-linecap:square;stroke-linejoin:miter;stroke-width:0.8;"/>
   </g>
   <g id="patch_5">
    <path d="M 18 342  L 352.8 342  " style="fill:none;stroke:#000000;stroke-linecap:square;stroke-linejoin:miter;stroke-width:0.8;"/>
   </g>
   <g id="patch_6">
    <path d="M 18 7.2  L 352.8 7.2  " style="fill:none;stroke:#000000;stroke-linecap:square;stroke-linejoin:miter;stroke-width:0.8;"/>
   </g>
  </g>
 </g>
 <defs>
  <clipPath id="pf3e8a99a7a">
   <rect height="334.8" width="334.8" x="18" y="7.2"/>
  </clipPath>
 </defs>
</g>
    </g>
  </g>
</svg>
