<?xml version='1.0' encoding='ASCII' standalone='yes'?>
<svg xmlns:xlink="http://www.w3.org/1999/xlink" xmlns="http://www.w3.org/2000/svg" version="1.1" width="360.0px" viewBox="0 0 360.0px 360.0px" height="360.0px">
  <g>
    <g>
      <g transform="translate(18, 7.2) scale(1) translate(0, 0) scale(0.93) ">
        <defs>
          <g class="white pawn" id="white-pawn">
            <path d="M22 9c-2.21 0-4 1.79-4 4 0 .89.29 1.71.78 2.38-1.95 1.12-3.28 3.21-3.28 5.62 0 2.03.94 3.84 2.41 5.03-3 1.06-7.41 5.55-7.41 13.47h23c0-7.92-4.41-12.41-7.41-13.47 1.47-1.19 2.41-3 2.41-5.03 0-2.41-1.33-4.5-3.28-5.62.49-.67.78-1.49.78-2.38 0-2.21-1.79-4-4-4z" fill="#fff" stroke="#000" stroke-linecap="round" stroke-width="1.5"/>
          </g>
          <g class="white knight" fill="none" fill-rule="evenodd" id="white-knight" stroke="#000" stroke-linecap="round" stroke-linejoin="round" stroke-width="1.5">
            <path d="M 22,10 C 32.5,11 38.5,18 38,39 L 15,39 C 15,30 25,32.5 23,18" style="fill:#ffffff; stroke:#000000;"/>
            <path d="M 24,18 C 24.38,20.91 18.45,25.37 16,27 C 13,29 13.18,31.34 11,31 C 9.958,30.06 12.41,27.96 11,28 C 10,28 11.19,29.23 10,30 C 9,30 5.997,31 6,26 C 6,24 12,14 12,14 C 12,14 13.89,12.1 14,10.5 C 13.27,9.506 13.5,8.5 13.5,7.5 C 14.5,6.5 16.5,10 16.5,10 L 18.5,10 C 18.5,10 19.28,8.008 21,7 C 22,7 22,10 22,10" style="fill:#ffffff; stroke:#000000;"/>
            <path d="M 9.5 25.5 A 0.5 0.5 0 1 1 8.5,25.5 A 0.5 0.5 0 1 1 9.5 25.5 z" style="fill:#000000; stroke:#000000;"/>
            <path d="M 15 15.5 A 0.5 1.5 0 1 1 14,15.5 A 0.5 1.5 0 1 1 15 15.5 z" style="fill:#000000; stroke:#000000;" transform="matrix(0.866,0.5,-0.5,0.866,9.693,-5.173)"/>
          </g>
          <g class="white bishop" fill="none" fill-rule="evenodd" id="white-bishop" stroke="#000" stroke-linecap="round" stroke-linejoin="round" stroke-width="1.5">
            <g fill="#fff" stroke-linecap="butt">
              <path d="M9 36c3.39-.97 10.11.43 13.5-2 3.39 2.43 10.11 1.03 13.5 2 0 0 1.65.54 3 2-.68.97-1.65.99-3 .5-3.39-.97-10.11.46-13.5-1-3.39 1.46-10.11.03-13.5 1-1.354.49-2.323.47-3-.5 1.354-1.94 3-2 3-2zM15 32c2.5 2.5 12.5 2.5 15 0 .5-1.5 0-2 0-2 0-2.5-2.5-4-2.5-4 5.5-1.5 6-11.5-5-15.5-11 4-10.5 14-5 15.5 0 0-2.5 1.5-2.5 4 0 0-.5.5 0 2zM25 8a2.5 2.5 0 1 1-5 0 2.5 2.5 0 1 1 5 0z"/>
            </g>
            <path d="M17.5 26h10M15 30h15m-7.5-14.5v5M20 18h5" stroke-linejoin="miter"/>
          </g>
          <g class="white rook" fill="#fff" fill-rule="evenodd" id="white-rook" stroke="#000" stroke-linecap="round" stroke-linejoin="round" stroke-width="1.5">
            <path d="M9 39h27v-3H9v3zM12 36v-4h21v4H12zM11 14V9h4v2h5V9h5v2h5V9h4v5" stroke-linecap="butt"/>
            <path d="M34 14l-3 3H14l-3-3"/>
            <path d="M31 17v12.5H14V17" stroke-linecap="butt" stroke-linejoin="miter"/>
            <path d="M31 29.5l1.5 2.5h-20l1.5-2.5"/>
            <path d="M11 14h23" fill="none" stroke-linejoin="miter"/>
          </g>
          <g class="white queen" fill="#fff" fill-rule="evenodd" id="white-queen" stroke="#000" stroke-linecap="round" stroke-linejoin="round" stroke-width="1.5">
            <path d="M8 12a2 2 0 1 1-4 0 2 2 0 1 1 4 0zM24.5 7.5a2 2 0 1 1-4 0 2 2 0 1 1 4 0zM41 12a2 2 0 1 1-4 0 2 2 0 1 1 4 0zM16 8.5a2 2 0 1 1-4 0 2 2 0 1 1 4 0zM33 9a2 2 0 1 1-4 0 2 2 0 1 1 4 0z"/>
            <path d="M9 26c8.5-1.5 21-1.5 27 0l2-12-7 11V11l-5.5 13.5-3-15-3 15-5.5-14V25L7 14l2 12zM9 26c0 2 1.5 2 2.5 4 1 1.5 1 1 .5 3.5-1.5 1-1.5 2.5-1.5 2.5-1.5 1.5.5 2.5.5 2.5 6.5 1 16.5 1 23 0 0 0 1.5-1 0-2.5 0 0 .5-1.5-1-2.5-.5-2.5-.5-2 .5-3.5 1-2 2.5-2 2.5-4-8.5-1.5-18.5-1.5-27 0z" stroke-linecap="butt"/>
            <path d="M11.5 30c3.5-1 18.5-1 22 0M12 33.5c6-1 15-1 21 0" fill="none"/>
          </g>
          <g class="white king" fill="none" fill-rule="evenodd" id="white-king" stroke="#000" stroke-linecap="round" stroke-linejoin="round" stroke-width="1.5">
            <path d="M22.5 11.63V6M20 8h5" stroke-linejoin="miter"/>
            <path d="M22.5 25s4.5-7.5 3-10.5c0 0-1-2.5-3-2.5s-3 2.5-3 2.5c-1.5 3 3 10.5 3 10.5" fill="#fff" stroke-linecap="butt" stroke-linejoin="miter"/>
            <path d="M11.5 37c5.5 3.5 15.5 3.5 21 0v-7s9-4.5 6-10.5c-4-6.5-13.5-3.5-16 4V27v-3.5c-3.5-7.5-13-10.5-16-4-3 6 5 10 5 10V37z" fill="#fff"/>
            <path d="M11.5 30c5.5-3 15.5-3 21 0m-21 3.5c5.5-3 15.5-3 21 0m-21 3.5c5.5-3 15.5-3 21 0"/>
          </g>
          <g class="black pawn" id="black-pawn">
            <path d="M22 9c-2.21 0-4 1.79-4 4 0 .89.29 1.71.78 2.38-1.95 1.12-3.28 3.21-3.28 5.62 0 2.03.94 3.84 2.41 5.03-3 1.06-7.41 5.55-7.41 13.47h23c0-7.92-4.41-12.41-7.41-13.47 1.47-1.19 2.41-3 2.41-5.03 0-2.41-1.33-4.5-3.28-5.62.49-.67.78-1.49.78-2.38 0-2.21-1.79-4-4-4z" stroke="#000" stroke-linecap="round" stroke-width="1.5"/>
          </g>
          <g class="black knight" fill="none" fill-rule="evenodd" id="black-knight" stroke="#000" stroke-linecap="round" stroke-linejoin="round" stroke-width="1.5">
            <path d="M 22,10 C 32.5,11 38.5,18 38,39 L 15,39 C 15,30 25,32.5 23,18" style="fill:#000000; stroke:#000000;"/>
            <path d="M 24,18 C 24.38,20.91 18.45,25.37 16,27 C 13,29 13.18,31.34 11,31 C 9.958,30.06 12.41,27.96 11,28 C 10,28 11.19,29.23 10,30 C 9,30 5.997,31 6,26 C 6,24 12,14 12,14 C 12,14 13.89,12.1 14,10.5 C 13.27,9.506 13.5,8.5 13.5,7.5 C 14.5,6.5 16.5,10 16.5,10 L 18.5,10 C 18.5,10 19.28,8.008 21,7 C 22,7 22,10 22,10" style="fill:#000000; stroke:#000000;"/>
            <path d="M 9.5 25.5 A 0.5 0.5 0 1 1 8.5,25.5 A 0.5 0.5 0 1 1 9.5 25.5 z" style="fill:#ececec; stroke:#ececec;"/>
            <path d="M 15 15.5 A 0.5 1.5 0 1 1 14,15.5 A 0.5 1.5 0 1 1 15 15.5 z" style="fill:#ececec; stroke:#ececec;" transform="matrix(0.866,0.5,-0.5,0.866,9.693,-5.173)"/>
            <path d="M 24.55,10.4 L 24.1,11.85 L 24.6,12 C 27.75,13 30.25,14.49 32.5,18.75 C 34.75,23.01 35.75,29.06 35.25,39 L 35.2,39.5 L 37.45,39.5 L 37.5,39 C 38,28.94 36.62,22.15 34.25,17.66 C 31.88,13.17 28.46,11.02 25.06,10.5 L 24.55,10.4 z " style="fill:#ececec; stroke:none;"/>
          </g>
          <g class="black bishop" fill="none" fill-rule="evenodd" id="black-bishop" stroke="#000" stroke-linecap="round" stroke-linejoin="round" stroke-width="1.5">
            <path d="M9 36c3.39-.97 10.11.43 13.5-2 3.39 2.43 10.11 1.03 13.5 2 0 0 1.65.54 3 2-.68.97-1.65.99-3 .5-3.39-.97-10.11.46-13.5-1-3.39 1.46-10.11.03-13.5 1-1.354.49-2.323.47-3-.5 1.354-1.94 3-2 3-2zm6-4c2.5 2.5 12.5 2.5 15 0 .5-1.5 0-2 0-2 0-2.5-2.5-4-2.5-4 5.5-1.5 6-11.5-5-15.5-11 4-10.5 14-5 15.5 0 0-2.5 1.5-2.5 4 0 0-.5.5 0 2zM25 8a2.5 2.5 0 1 1-5 0 2.5 2.5 0 1 1 5 0z" fill="#000" stroke-linecap="butt"/>
            <path d="M17.5 26h10M15 30h15m-7.5-14.5v5M20 18h5" stroke="#fff" stroke-linejoin="miter"/>
          </g>
          <g class="black rook" fill="#000" fill-rule="evenodd" id="black-rook" stroke="#000" stroke-linecap="round" stroke-linejoin="round" stroke-width="1.5">
            <path d="M9 39h27v-3H9v3zM12.5 32l1.5-2.5h17l1.5 2.5h-20zM12 36v-4h21v4H12z" stroke-linecap="butt"/>
            <path d="M14 29.5v-13h17v13H14z" stroke-linecap="butt" stroke-linejoin="miter"/>
            <path d="M14 16.5L11 14h23l-3 2.5H14zM11 14V9h4v2h5V9h5v2h5V9h4v5H11z" stroke-linecap="butt"/>
            <path d="M12 35.5h21M13 31.5h19M14 29.5h17M14 16.5h17M11 14h23" fill="none" stroke="#fff" stroke-linejoin="miter" stroke-width="1"/>
          </g>
          <g class="black queen" fill="#000" fill-rule="evenodd" id="black-queen" stroke="#000" stroke-linecap="round" stroke-linejoin="round" stroke-width="1.5">
            <g fill="#000" stroke="none">
              <circle cx="6" cy="12" r="2.75"/>
              <circle cx="14" cy="9" r="2.75"/>
              <circle cx="22.5" cy="8" r="2.75"/>
              <circle cx="31" cy="9" r="2.75"/>
              <circle cx="39" cy="12" r="2.75"/>
            </g>
            <path d="M9 26c8.5-1.5 21-1.5 27 0l2.5-12.5L31 25l-.3-14.1-5.2 13.6-3-14.5-3 14.5-5.2-13.6L14 25 6.5 13.5 9 26zM9 26c0 2 1.5 2 2.5 4 1 1.5 1 1 .5 3.5-1.5 1-1.5 2.5-1.5 2.5-1.5 1.5.5 2.5.5 2.5 6.5 1 16.5 1 23 0 0 0 1.5-1 0-2.5 0 0 .5-1.5-1-2.5-.5-2.5-.5-2 .5-3.5 1-2 2.5-2 2.5-4-8.5-1.5-18.5-1.5-27 0z" stroke-linecap="butt"/>
            <path d="M11 38.5a35 35 1 0 0 23 0" fill="none" stroke-linecap="butt"/>
            <path d="M11 29a35 35 1 0 1 23 0M12.5 31.5h20M11.5 34.5a35 35 1 0 0 22 0M10.5 37.5a35 35 1 0 0 24 0" fill="none" stroke="#fff"/>
          </g>
          <g class="black king" fill="none" fill-rule="evenodd" id="black-king" stroke="#000" stroke-linecap="round" stroke-linejoin="round" stroke-width="1.5">
            <path d="M22.5 11.63V6" stroke-linejoin="miter"/>
            <path d="M22.5 25s4.5-7.5 3-10.5c0 0-1-2.5-3-2.5s-3 2.5-3 2.5c-1.5 3 3 10.5 3 10.5" fill="#000" stroke-linecap="butt" stroke-linejoin="miter"/>
            <path d="M11.5 37c5.5 3.5 15.5 3.5 21 0v-7s9-4.5 6-10.5c-4-6.5-13.5-3.5-16 4V27v-3.5c-3.5-7.5-13-10.5-16-4-3 6 5 10 5 10V37z" fill="#000"/>
            <path d="M20 8h5" stroke-linejoin="miter"/>
            <path d="M32 29.5s8.5-4 6.03-9.65C34.15 14 25 18 22.5 24.5l.01 2.1-.01-2.1C20 18 9.906 14 6.997 19.85c-2.497 5.65 4.853 9 4.853 9M11.5 30c5.5-3 15.5-3 21 0m-21 3.5c5.5-3 15.5-3 21 0m-21 3.5c5.5-3 15.5-3 21 0" stroke="#fff"/>
          </g>
        </defs>
        <rect class="square dark a1" fill="#d18b47" height="45" stroke="none" width="45" x="0" y="315"/>
        <rect class="square light b1" fill="#ffce9e" height="45" stroke="none" width="45" x="45" y="315"/>
        <rect class="square dark c1" fill="#d18b47" height="45" stroke="none" width="45" x="90" y="315"/>
        <rect class="square light d1" fill="#ffce9e" height="45" stroke="none" width="45" x="135" y="315"/>
        <use transform="translate(135, 315)" xlink:href="#white-queen"/>
        <rect class="square dark e1" fill="#d18b47" height="45" stroke="none" width="45" x="180" y="315"/>
        <rect class="square light f1" fill="#ffce9e" height="45" stroke="none" width="45" x="225" y="315"/>
        <use transform="translate(225, 315)" xlink:href="#white-king"/>
        <rect class="square dark g1" fill="#d18b47" height="45" stroke="none" width="45" x="270" y="315"/>
        <use transform="translate(270, 315)" xlink:href="#white-knight"/>
        <rect class="square light h1" fill="#ffce9e" height="45" stroke="none" width="45" x="315" y="315"/>
        <rect class="square light a2" fill="#ffce9e" height="45" stroke="none" width="45" x="0" y="270"/>
        <rect class="square dark b2" fill="#d18b47" height="45" stroke="none" width="45" x="45" y="270"/>
        <rect class="square light c2" fill="#ffce9e" height="45" stroke="none" width="45" x="90" y="270"/>
        <rect class="square dark d2" fill="#d18b47" height="45" stroke="none" width="45" x="135" y="270"/>
        <use transform="translate(135, 270)" xlink:href="#white-bishop"/>
        <rect class="square light e2" fill="#ffce9e" height="45" stroke="none" width="45" x="180" y="270"/>
        <use transform="translate(180, 270)" xlink:href="#white-bishop"/>
        <rect class="square dark f2" fill="#d18b47" height="45" stroke="none" width="45" x="225" y="270"/>
        <use transform="translate(225, 270)" xlink:href="#white-pawn"/>
        <rect class="square light g2" fill="#ffce9e" height="45" stroke="none" width="45" x="270" y="270"/>
        <use transform="translate(270, 270)" xlink:href="#white-pawn"/>
        <rect class="square dark h2" fill="#d18b47" height="45" stroke="none" width="45" x="315" y="270"/>
        <rect class="square dark a3" fill="#d18b47" height="45" stroke="none" width="45" x="0" y="225"/>
        <rect class="square light b3" fill="#ffce9e" height="45" stroke="none" width="45" x="45" y="225"/>
        <rect class="square dark c3" fill="#d18b47" height="45" stroke="none" width="45" x="90" y="225"/>
        <use transform="translate(90, 225)" xlink:href="#white-pawn"/>
        <rect class="square light d3" fill="#ffce9e" height="45" stroke="none" width="45" x="135" y="225"/>
        <rect class="square dark e3" fill="#d18b47" height="45" stroke="none" width="45" x="180" y="225"/>
        <rect class="square light f3" fill="#ffce9e" height="45" stroke="none" width="45" x="225" y="225"/>
        <rect class="square dark g3" fill="#d18b47" height="45" stroke="none" width="45" x="270" y="225"/>
        <rect class="square light h3" fill="#ffce9e" height="45" stroke="none" width="45" x="315" y="225"/>
        <use transform="translate(315, 225)" xlink:href="#white-rook"/>
        <rect class="square light a4" fill="#ffce9e" height="45" stroke="none" width="45" x="0" y="180"/>
        <use transform="translate(0, 180)" xlink:href="#white-pawn"/>
        <rect class="square dark b4" fill="#d18b47" height="45" stroke="none" width="45" x="45" y="180"/>
        <rect class="square light c4" fill="#ffce9e" height="45" stroke="none" width="45" x="90" y="180"/>
        <rect class="square dark d4" fill="#d18b47" height="45" stroke="none" width="45" x="135" y="180"/>
        <use transform="translate(135, 180)" xlink:href="#black-bishop"/>
        <rect class="square light e4" fill="#ffce9e" height="45" stroke="none" width="45" x="180" y="180"/>
        <rect class="square dark f4" fill="#d18b47" height="45" stroke="none" width="45" x="225" y="180"/>
        <rect class="square light g4" fill="#ffce9e" height="45" stroke="none" width="45" x="270" y="180"/>
        <rect class="square dark h4" fill="#d18b47" height="45" stroke="none" width="45" x="315" y="180"/>
        <use transform="translate(315, 180)" xlink:href="#white-pawn"/>
        <rect class="square dark a5" fill="#d18b47" height="45" stroke="none" width="45" x="0" y="135"/>
        <use transform="translate(0, 135)" xlink:href="#black-queen"/>
        <rect class="square light b5" fill="#ffce9e" height="45" stroke="none" width="45" x="45" y="135"/>
        <use transform="translate(45, 135)" xlink:href="#white-rook"/>
        <rect class="square dark c5" fill="#d18b47" height="45" stroke="none" width="45" x="90" y="135"/>
        <rect class="square light d5" fill="#ffce9e" height="45" stroke="none" width="45" x="135" y="135"/>
        <rect class="square dark e5" fill="#d18b47" height="45" stroke="none" width="45" x="180" y="135"/>
        <use transform="translate(180, 135)" xlink:href="#black-pawn"/>
        <rect class="square light f5" fill="#ffce9e" height="45" stroke="none" width="45" x="225" y="135"/>
        <rect class="square dark g5" fill="#d18b47" height="45" stroke="none" width="45" x="270" y="135"/>
        <rect class="square light h5" fill="#ffce9e" height="45" stroke="none" width="45" x="315" y="135"/>
        <rect class="square light a6" fill="#ffce9e" height="45" stroke="none" width="45" x="0" y="90"/>
        <rect class="square dark b6" fill="#d18b47" height="45" stroke="none" width="45" x="45" y="90"/>
        <use transform="translate(45, 90)" xlink:href="#black-pawn"/>
        <rect class="square light c6" fill="#ffce9e" height="45" stroke="none" width="45" x="90" y="90"/>
        <use transform="translate(90, 90)" xlink:href="#black-knight"/>
        <rect class="square dark d6" fill="#d18b47" height="45" stroke="none" width="45" x="135" y="90"/>
        <use transform="translate(135, 90)" xlink:href="#black-rook"/>
        <rect class="square light e6" fill="#ffce9e" height="45" stroke="none" width="45" x="180" y="90"/>
        <rect class="square dark f6" fill="#d18b47" height="45" stroke="none" width="45" x="225" y="90"/>
        <use transform="translate(225, 90)" xlink:href="#black-pawn"/>
        <rect class="square light g6" fill="#ffce9e" height="45" stroke="none" width="45" x="270" y="90"/>
        <rect class="square dark h6" fill="#d18b47" height="45" stroke="none" width="45" x="315" y="90"/>
        <rect class="square dark a7" fill="#d18b47" height="45" stroke="none" width="45" x="0" y="45"/>
        <use transform="translate(0, 45)" xlink:href="#black-pawn"/>
        <rect class="square light b7" fill="#ffce9e" height="45" stroke="none" width="45" x="45" y="45"/>
        <use transform="translate(45, 45)" xlink:href="#black-bishop"/>
        <rect class="square dark c7" fill="#d18b47" height="45" stroke="none" width="45" x="90" y="45"/>
        <use transform="translate(90, 45)" xlink:href="#black-pawn"/>
        <rect class="square light d7" fill="#ffce9e" height="45" stroke="none" width="45" x="135" y="45"/>
        <rect class="square dark e7" fill="#d18b47" height="45" stroke="none" width="45" x="180" y="45"/>
        <rect class="square light f7" fill="#ffce9e" height="45" stroke="none" width="45" x="225" y="45"/>
        <rect class="square dark g7" fill="#d18b47" height="45" stroke="none" width="45" x="270" y="45"/>
        <use transform="translate(270, 45)" xlink:href="#black-pawn"/>
        <rect class="square light h7" fill="#ffce9e" height="45" stroke="none" width="45" x="315" y="45"/>
        <use transform="translate(315, 45)" xlink:href="#black-pawn"/>
        <rect class="square light a8" fill="#ffce9e" height="45" stroke="none" width="45" x="0" y="0"/>
        <rect class="square dark b8" fill="#d18b47" height="45" stroke="none" width="45" x="45" y="0"/>
        <rect class="square light c8" fill="#ffce9e" height="45" stroke="none" width="45" x="90" y="0"/>
        <use transform="translate(90, 0)" xlink:href="#black-king"/>
        <rect class="square dark d8" fill="#d18b47" height="45" stroke="none" width="45" x="135" y="0"/>
        <rect class="square light e8" fill="#ffce9e" height="45" stroke="none" width="45" x="180" y="0"/>
        <rect class="square dark f8" fill="#d18b47" height="45" stroke="none" width="45" x="225" y="0"/>
        <rect class="square light g8" fill="#ffce9e" height="45" stroke="none" width="45" x="270" y="0"/>
        <rect class="square dark h8" fill="#d18b47" height="45" stroke="none" width="45" x="315" y="0"/>
        <use transform="translate(315, 0)" xlink:href="#black-rook"/>
      </g>
    </g>
    <g>
      <g><defs>
  <style type="text/css">
*{stroke-linecap:butt;stroke-linejoin:round;}
  </style>
 </defs>
 <g id="figure_1">
  <g id="patch_1">
   <path d="M 0 360  L 360 360  L 360 0  L 0 0  z " style="fill:none;"/>
  </g>
  <g id="axes_1">
   <g id="patch_2">
    <path d="M 18 342  L 352.8 342  L 352.8 7.2  L 18 7.2  z " style="fill:none;"/>
   </g>
   <g id="matplotlib.axis_1">
    <g id="xtick_1">
     <g id="line2d_1">
      <defs>
       <path d="M 0 0  L 0 3.5  " id="md98a153ffc" style="stroke:#000000;stroke-width:0.8;"/>
      </defs>
      <g>
       <use style="stroke:#000000;stroke-width:0.8;" x="18" xlink:href="#md98a153ffc" y="342"/>
      </g>
     </g>
     <g id="text_1">
      <!-- 0.0 -->
      <defs>
       <path d="M 31.78125 66.40625  Q 24.171875 66.40625 20.328125 58.90625  Q 16.5 51.421875 16.5 36.375  Q 16.5 21.390625 20.328125 13.890625  Q 24.171875 6.390625 31.78125 6.390625  Q 39.453125 6.390625 43.28125 13.890625  Q 47.125 21.390625 47.125 36.375  Q 47.125 51.421875 43.28125 58.90625  Q 39.453125 66.40625 31.78125 66.40625  z M 31.78125 74.21875  Q 44.046875 74.21875 50.515625 64.515625  Q 56.984375 54.828125 56.984375 36.375  Q 56.984375 17.96875 50.515625 8.265625  Q 44.046875 -1.421875 31.78125 -1.421875  Q 19.53125 -1.421875 13.0625 8.265625  Q 6.59375 17.96875 6.59375 36.375  Q 6.59375 54.828125 13.0625 64.515625  Q 19.53125 74.21875 31.78125 74.21875  z " id="DejaVuSans-48"/>
       <path d="M 10.6875 12.40625  L 21 12.40625  L 21 0  L 10.6875 0  z " id="DejaVuSans-46"/>
      </defs>
      <g transform="translate(10.048437 356.598437)scale(0.1 -0.1)">
       <use xlink:href="#DejaVuSans-48"/>
       <use x="63.623047" xlink:href="#DejaVuSans-46"/>
       <use x="95.410156" xlink:href="#DejaVuSans-48"/>
      </g>
     </g>
    </g>
    <g id="xtick_2">
     <g id="line2d_2">
      <g>
       <use style="stroke:#000000;stroke-width:0.8;" x="56.930233" xlink:href="#md98a153ffc" y="342"/>
      </g>
     </g>
     <g id="text_2">
      <!-- 2.5 -->
      <defs>
       <path d="M 19.1875 8.296875  L 53.609375 8.296875  L 53.609375 0  L 7.328125 0  L 7.328125 8.296875  Q 12.9375 14.109375 22.625 23.890625  Q 32.328125 33.6875 34.8125 36.53125  Q 39.546875 41.84375 41.421875 45.53125  Q 43.3125 49.21875 43.3125 52.78125  Q 43.3125 58.59375 39.234375 62.25  Q 35.15625 65.921875 28.609375 65.921875  Q 23.96875 65.921875 18.8125 64.3125  Q 13.671875 62.703125 7.8125 59.421875  L 7.8125 69.390625  Q 13.765625 71.78125 18.9375 73  Q 24.125 74.21875 28.421875 74.21875  Q 39.75 74.21875 46.484375 68.546875  Q 53.21875 62.890625 53.21875 53.421875  Q 53.21875 48.921875 51.53125 44.890625  Q 49.859375 40.875 45.40625 35.40625  Q 44.1875 33.984375 37.640625 27.21875  Q 31.109375 20.453125 19.1875 8.296875  z " id="DejaVuSans-50"/>
       <path d="M 10.796875 72.90625  L 49.515625 72.90625  L 49.515625 64.59375  L 19.828125 64.59375  L 19.828125 46.734375  Q 21.96875 47.46875 24.109375 47.828125  Q 26.265625 48.1875 28.421875 48.1875  Q 40.625 48.1875 47.75 41.5  Q 54.890625 34.8125 54.890625 23.390625  Q 54.890625 11.625 47.5625 5.09375  Q 40.234375 -1.421875 26.90625 -1.421875  Q 22.3125 -1.421875 17.546875 -0.640625  Q 12.796875 0.140625 7.71875 1.703125  L 7.71875 11.625  Q 12.109375 9.234375 16.796875 8.0625  Q 21.484375 6.890625 26.703125 6.890625  Q 35.15625 6.890625 40.078125 11.328125  Q 45.015625 15.765625 45.015625 23.390625  Q 45.015625 31 40.078125 35.4375  Q 35.15625 39.890625 26.703125 39.890625  Q 22.75 39.890625 18.8125 39.015625  Q 14.890625 38.140625 10.796875 36.28125  z " id="DejaVuSans-53"/>
      </defs>
      <g transform="translate(48.97867 356.598437)scale(0.1 -0.1)">
       <use xlink:href="#DejaVuSans-50"/>
       <use x="63.623047" xlink:href="#DejaVuSans-46"/>
       <use x="95.410156" xlink:href="#DejaVuSans-53"/>
      </g>
     </g>
    </g>
    <g id="xtick_3">
     <g id="line2d_3">
      <g>
       <use style="stroke:#000000;stroke-width:0.8;" x="95.860465" xlink:href="#md98a153ffc" y="342"/>
      </g>
     </g>
     <g id="text_3">
      <!-- 5.0 -->
      <g transform="translate(87.908903 356.598437)scale(0.1 -0.1)">
       <use xlink:href="#DejaVuSans-53"/>
       <use x="63.623047" xlink:href="#DejaVuSans-46"/>
       <use x="95.410156" xlink:href="#DejaVuSans-48"/>
      </g>
     </g>
    </g>
    <g id="xtick_4">
     <g id="line2d_4">
      <g>
       <use style="stroke:#000000;stroke-width:0.8;" x="134.790698" xlink:href="#md98a153ffc" y="342"/>
      </g>
     </g>
     <g id="text_4">
      <!-- 7.5 -->
      <defs>
       <path d="M 8.203125 72.90625  L 55.078125 72.90625  L 55.078125 68.703125  L 28.609375 0  L 18.3125 0  L 43.21875 64.59375  L 8.203125 64.59375  z " id="DejaVuSans-55"/>
      </defs>
      <g transform="translate(126.839135 356.598437)scale(0.1 -0.1)">
       <use xlink:href="#DejaVuSans-55"/>
       <use x="63.623047" xlink:href="#DejaVuSans-46"/>
       <use x="95.410156" xlink:href="#DejaVuSans-53"/>
      </g>
     </g>
    </g>
    <g id="xtick_5">
     <g id="line2d_5">
      <g>
       <use style="stroke:#000000;stroke-width:0.8;" x="173.72093" xlink:href="#md98a153ffc" y="342"/>
      </g>
     </g>
     <g id="text_5">
      <!-- 10.0 -->
      <defs>
       <path d="M 12.40625 8.296875  L 28.515625 8.296875  L 28.515625 63.921875  L 10.984375 60.40625  L 10.984375 69.390625  L 28.421875 72.90625  L 38.28125 72.90625  L 38.28125 8.296875  L 54.390625 8.296875  L 54.390625 0  L 12.40625 0  z " id="DejaVuSans-49"/>
      </defs>
      <g transform="translate(162.588118 356.598437)scale(0.1 -0.1)">
       <use xlink:href="#DejaVuSans-49"/>
       <use x="63.623047" xlink:href="#DejaVuSans-48"/>
       <use x="127.246094" xlink:href="#DejaVuSans-46"/>
       <use x="159.033203" xlink:href="#DejaVuSans-48"/>
      </g>
     </g>
    </g>
    <g id="xtick_6">
     <g id="line2d_6">
      <g>
       <use style="stroke:#000000;stroke-width:0.8;" x="212.651163" xlink:href="#md98a153ffc" y="342"/>
      </g>
     </g>
     <g id="text_6">
      <!-- 12.5 -->
      <g transform="translate(201.51835 356.598437)scale(0.1 -0.1)">
       <use xlink:href="#DejaVuSans-49"/>
       <use x="63.623047" xlink:href="#DejaVuSans-50"/>
       <use x="127.246094" xlink:href="#DejaVuSans-46"/>
       <use x="159.033203" xlink:href="#DejaVuSans-53"/>
      </g>
     </g>
    </g>
    <g id="xtick_7">
     <g id="line2d_7">
      <g>
       <use style="stroke:#000000;stroke-width:0.8;" x="251.581395" xlink:href="#md98a153ffc" y="342"/>
      </g>
     </g>
     <g id="text_7">
      <!-- 15.0 -->
      <g transform="translate(240.448583 356.598437)scale(0.1 -0.1)">
       <use xlink:href="#DejaVuSans-49"/>
       <use x="63.623047" xlink:href="#DejaVuSans-53"/>
       <use x="127.246094" xlink:href="#DejaVuSans-46"/>
       <use x="159.033203" xlink:href="#DejaVuSans-48"/>
      </g>
     </g>
    </g>
    <g id="xtick_8">
     <g id="line2d_8">
      <g>
       <use style="stroke:#000000;stroke-width:0.8;" x="290.511628" xlink:href="#md98a153ffc" y="342"/>
      </g>
     </g>
     <g id="text_8">
      <!-- 17.5 -->
      <g transform="translate(279.378815 356.598437)scale(0.1 -0.1)">
       <use xlink:href="#DejaVuSans-49"/>
       <use x="63.623047" xlink:href="#DejaVuSans-55"/>
       <use x="127.246094" xlink:href="#DejaVuSans-46"/>
       <use x="159.033203" xlink:href="#DejaVuSans-53"/>
      </g>
     </g>
    </g>
    <g id="xtick_9">
     <g id="line2d_9">
      <g>
       <use style="stroke:#000000;stroke-width:0.8;" x="329.44186" xlink:href="#md98a153ffc" y="342"/>
      </g>
     </g>
     <g id="text_9">
      <!-- 20.0 -->
      <g transform="translate(318.309048 356.598437)scale(0.1 -0.1)">
       <use xlink:href="#DejaVuSans-50"/>
       <use x="63.623047" xlink:href="#DejaVuSans-48"/>
       <use x="127.246094" xlink:href="#DejaVuSans-46"/>
       <use x="159.033203" xlink:href="#DejaVuSans-48"/>
      </g>
     </g>
    </g>
   </g>
   <g id="matplotlib.axis_2">
    <g id="ytick_1">
     <g id="line2d_10">
      <defs>
       <path d="M 0 0  L -3.5 0  " id="mfeeae18f78" style="stroke:#000000;stroke-width:0.8;"/>
      </defs>
      <g>
       <use style="stroke:#000000;stroke-width:0.8;" x="18" xlink:href="#mfeeae18f78" y="342"/>
      </g>
     </g>
     <g id="text_10">
      <!-- &#8722;8 -->
      <defs>
       <path d="M 10.59375 35.5  L 73.1875 35.5  L 73.1875 27.203125  L 10.59375 27.203125  z " id="DejaVuSans-8722"/>
       <path d="M 31.78125 34.625  Q 24.75 34.625 20.71875 30.859375  Q 16.703125 27.09375 16.703125 20.515625  Q 16.703125 13.921875 20.71875 10.15625  Q 24.75 6.390625 31.78125 6.390625  Q 38.8125 6.390625 42.859375 10.171875  Q 46.921875 13.96875 46.921875 20.515625  Q 46.921875 27.09375 42.890625 30.859375  Q 38.875 34.625 31.78125 34.625  z M 21.921875 38.8125  Q 15.578125 40.375 12.03125 44.71875  Q 8.5 49.078125 8.5 55.328125  Q 8.5 64.0625 14.71875 69.140625  Q 20.953125 74.21875 31.78125 74.21875  Q 42.671875 74.21875 48.875 69.140625  Q 55.078125 64.0625 55.078125 55.328125  Q 55.078125 49.078125 51.53125 44.71875  Q 48 40.375 41.703125 38.8125  Q 48.828125 37.15625 52.796875 32.3125  Q 56.78125 27.484375 56.78125 20.515625  Q 56.78125 9.90625 50.3125 4.234375  Q 43.84375 -1.421875 31.78125 -1.421875  Q 19.734375 -1.421875 13.25 4.234375  Q 6.78125 9.90625 6.78125 20.515625  Q 6.78125 27.484375 10.78125 32.3125  Q 14.796875 37.15625 21.921875 38.8125  z M 18.3125 54.390625  Q 18.3125 48.734375 21.84375 45.5625  Q 25.390625 42.390625 31.78125 42.390625  Q 38.140625 42.390625 41.71875 45.5625  Q 45.3125 48.734375 45.3125 54.390625  Q 45.3125 60.0625 41.71875 63.234375  Q 38.140625 66.40625 31.78125 66.40625  Q 25.390625 66.40625 21.84375 63.234375  Q 18.3125 60.0625 18.3125 54.390625  z " id="DejaVuSans-56"/>
      </defs>
      <g transform="translate(-3.742188 345.799219)scale(0.1 -0.1)">
       <use xlink:href="#DejaVuSans-8722"/>
       <use x="83.789062" xlink:href="#DejaVuSans-56"/>
      </g>
     </g>
    </g>
    <g id="ytick_2">
     <g id="line2d_11">
      <g>
       <use style="stroke:#000000;stroke-width:0.8;" x="18" xlink:href="#mfeeae18f78" y="300.15"/>
      </g>
     </g>
     <g id="text_11">
      <!-- &#8722;6 -->
      <defs>
       <path d="M 33.015625 40.375  Q 26.375 40.375 22.484375 35.828125  Q 18.609375 31.296875 18.609375 23.390625  Q 18.609375 15.53125 22.484375 10.953125  Q 26.375 6.390625 33.015625 6.390625  Q 39.65625 6.390625 43.53125 10.953125  Q 47.40625 15.53125 47.40625 23.390625  Q 47.40625 31.296875 43.53125 35.828125  Q 39.65625 40.375 33.015625 40.375  z M 52.59375 71.296875  L 52.59375 62.3125  Q 48.875 64.0625 45.09375 64.984375  Q 41.3125 65.921875 37.59375 65.921875  Q 27.828125 65.921875 22.671875 59.328125  Q 17.53125 52.734375 16.796875 39.40625  Q 19.671875 43.65625 24.015625 45.921875  Q 28.375 48.1875 33.59375 48.1875  Q 44.578125 48.1875 50.953125 41.515625  Q 57.328125 34.859375 57.328125 23.390625  Q 57.328125 12.15625 50.6875 5.359375  Q 44.046875 -1.421875 33.015625 -1.421875  Q 20.359375 -1.421875 13.671875 8.265625  Q 6.984375 17.96875 6.984375 36.375  Q 6.984375 53.65625 15.1875 63.9375  Q 23.390625 74.21875 37.203125 74.21875  Q 40.921875 74.21875 44.703125 73.484375  Q 48.484375 72.75 52.59375 71.296875  z " id="DejaVuSans-54"/>
      </defs>
      <g transform="translate(-3.742188 303.949219)scale(0.1 -0.1)">
       <use xlink:href="#DejaVuSans-8722"/>
       <use x="83.789062" xlink:href="#DejaVuSans-54"/>
      </g>
     </g>
    </g>
    <g id="ytick_3">
     <g id="line2d_12">
      <g>
       <use style="stroke:#000000;stroke-width:0.8;" x="18" xlink:href="#mfeeae18f78" y="258.3"/>
      </g>
     </g>
     <g id="text_12">
      <!-- &#8722;4 -->
      <defs>
       <path d="M 37.796875 64.3125  L 12.890625 25.390625  L 37.796875 25.390625  z M 35.203125 72.90625  L 47.609375 72.90625  L 47.609375 25.390625  L 58.015625 25.390625  L 58.015625 17.1875  L 47.609375 17.1875  L 47.609375 0  L 37.796875 0  L 37.796875 17.1875  L 4.890625 17.1875  L 4.890625 26.703125  z " id="DejaVuSans-52"/>
      </defs>
      <g transform="translate(-3.742188 262.099219)scale(0.1 -0.1)">
       <use xlink:href="#DejaVuSans-8722"/>
       <use x="83.789062" xlink:href="#DejaVuSans-52"/>
      </g>
     </g>
    </g>
    <g id="ytick_4">
     <g id="line2d_13">
      <g>
       <use style="stroke:#000000;stroke-width:0.8;" x="18" xlink:href="#mfeeae18f78" y="216.45"/>
      </g>
     </g>
     <g id="text_13">
      <!-- &#8722;2 -->
      <g transform="translate(-3.742188 220.249219)scale(0.1 -0.1)">
       <use xlink:href="#DejaVuSans-8722"/>
       <use x="83.789062" xlink:href="#DejaVuSans-50"/>
      </g>
     </g>
    </g>
    <g id="ytick_5">
     <g id="line2d_14">
      <g>
       <use style="stroke:#000000;stroke-width:0.8;" x="18" xlink:href="#mfeeae18f78" y="174.6"/>
      </g>
     </g>
     <g id="text_14">
      <!-- 0 -->
      <g transform="translate(4.6375 178.399219)scale(0.1 -0.1)">
       <use xlink:href="#DejaVuSans-48"/>
      </g>
     </g>
    </g>
    <g id="ytick_6">
     <g id="line2d_15">
      <g>
       <use style="stroke:#000000;stroke-width:0.8;" x="18" xlink:href="#mfeeae18f78" y="132.75"/>
      </g>
     </g>
     <g id="text_15">
      <!-- 2 -->
      <g transform="translate(4.6375 136.549219)scale(0.1 -0.1)">
       <use xlink:href="#DejaVuSans-50"/>
      </g>
     </g>
    </g>
    <g id="ytick_7">
     <g id="line2d_16">
      <g>
       <use style="stroke:#000000;stroke-width:0.8;" x="18" xlink:href="#mfeeae18f78" y="90.9"/>
      </g>
     </g>
     <g id="text_16">
      <!-- 4 -->
      <g transform="translate(4.6375 94.699219)scale(0.1 -0.1)">
       <use xlink:href="#DejaVuSans-52"/>
      </g>
     </g>
    </g>
    <g id="ytick_8">
     <g id="line2d_17">
      <g>
       <use style="stroke:#000000;stroke-width:0.8;" x="18" xlink:href="#mfeeae18f78" y="49.05"/>
      </g>
     </g>
     <g id="text_17">
      <!-- 6 -->
      <g transform="translate(4.6375 52.849219)scale(0.1 -0.1)">
       <use xlink:href="#DejaVuSans-54"/>
      </g>
     </g>
    </g>
    <g id="ytick_9">
     <g id="line2d_18">
      <g>
       <use style="stroke:#000000;stroke-width:0.8;" x="18" xlink:href="#mfeeae18f78" y="7.2"/>
      </g>
     </g>
     <g id="text_18">
      <!-- 8 -->
      <g transform="translate(4.6375 10.999219)scale(0.1 -0.1)">
       <use xlink:href="#DejaVuSans-56"/>
      </g>
     </g>
    </g>
   </g>
   <g id="line2d_19">
    <path clip-path="url(#p468976adcc)" d="M 18 166.43925  L 25.786047 174.80925  L 33.572093 170.415  L 41.35814 174.80925  L 49.144186 166.02075  L 56.930233 166.23  L 64.716279 163.92825  L 72.502326 166.02075  L 80.288372 166.6485  L 88.074419 171.252  L 95.860465 166.43925  L 103.646512 167.067  L 111.432558 167.27625  L 119.218605 171.46125  L 127.004651 161.6265  L 134.790698 176.06475  L 142.576744 177.73875  L 150.362791 177.73875  L 158.148837 175.0185  L 165.934884 174.6  L 173.72093 175.8555  L 181.506977 174.6  L 189.293023 161.83575  L 197.07907 178.99425  L 204.865116 168.53175  L 212.651163 167.27625  L 220.437209 168.741  L 228.223256 166.02075  L 236.009302 164.34675  L 243.795349 170.415  L 251.581395 166.43925  L 259.367442 175.22775  L 267.153488 174.6  L 274.939535 174.80925  L 282.725581 175.0185  L 290.511628 176.06475  L 298.297674 150.327  L 306.083721 164.9745  L 313.869767 167.4855  L 321.655814 193.014  L 329.44186 149.0715  L 337.227907 174.6  L 345.013953 169.36875  L 352.8 186.7365  " style="fill:none;stroke:#000000;stroke-linecap:square;stroke-width:1.5;"/>
   </g>
   <g id="patch_3">
    <path d="M 18 342  L 18 7.2  " style="fill:none;stroke:#000000;stroke-linecap:square;stroke-linejoin:miter;stroke-width:0.8;"/>
   </g>
   <g id="patch_4">
    <path d="M 352.8 342  L 352.8 7.2  " style="fill:none;stroke:#000000;stroke-linecap:square;stroke-linejoin:miter;stroke-width:0.8;"/>
   </g>
   <g id="patch_5">
    <path d="M 18 342  L 352.8 342  " style="fill:none;stroke:#000000;stroke-linecap:square;stroke-linejoin:miter;stroke-width:0.8;"/>
   </g>
   <g id="patch_6">
    <path d="M 18 7.2  L 352.8 7.2  " style="fill:none;stroke:#000000;stroke-linecap:square;stroke-linejoin:miter;stroke-width:0.8;"/>
   </g>
  </g>
 </g>
 <defs>
  <clipPath id="p468976adcc">
   <rect height="334.8" width="334.8" x="18" y="7.2"/>
  </clipPath>
 </defs>
</g>
    </g>
  </g>
</svg>
